<svg version="1" xmlns="http://www.w3.org/2000/svg" width="298.667" height="298.667" viewBox="0 0 224.000000 224.000000"><path d="M24 50c0 1.1-.4 2-1 2-.5 0-1 1.3-1 3 0 1.6-.4 3-1 3-.5 0-1 2.2-1 5 0 2.7.5 5 1 5 .6 0 1 1.3 1 3 0 1.6.5 3 1 3 .6 0 1 .9 1 2s.5 2 1 2c.6 0 1 .8 1 1.8s.9 2.4 2 3.2c1.1.8 2 2.2 2 3.2s.5 1.8 1 1.8c.6 0 1 1.8 1 4s.5 4 1 4c.6 0 1 1.3 1 2.8 0 1.6.8 3.4 2 4.2 1.4 1 2 2.6 2 5.2 0 2.1.5 3.8 1 3.8.6 0 1 1.3 1 2.8 0 1.6.8 3.4 2 4.2 1.1.8 2 2 2 2.8 0 1.7 2.5 4.2 4.2 4.2.8 0 2 .9 2.8 2 .8 1.1 2 2 2.8 2 1.8 0 4.2 2.5 4.2 4.4 0 .9.5 1.6 1 1.6.6 0 1 .8 1 1.8s.9 2.4 2 3.2c1.4 1 2 2.6 2 5.2 0 2.1.5 3.8 1 3.8.6 0 1 .9 1 2s.5 2 1 2c.6 0 1 .8 1 1.8s.9 2.4 2 3.2c1.2.8 2 2.6 2 4.2 0 1.5.5 2.8 1 2.8.6 0 1 .7 1 1.5 0 2 10.5 12.5 12.5 12.5.8 0 1.5.4 1.5 1 0 .5.9 1 2 1s2 .4 2 1 4 1 10 1 10-.4 10-1 .9-1 2-1 2-.5 2-1c0-.6.9-1 2-1s2-.5 2-1c0-.6 3-1 7-1s7 .4 7 1c0 .5.9 1 2 1s2-.5 2-1c0-.6.9-1 2-1s2-.5 2-1c0-.6 2.5-1 5.6-1 4.9 0 5.9-.4 8.4-3 2.3-2.5 3.6-3 7.4-3 2.5 0 4.6-.5 4.6-1 0-.6.7-1 1.5-1 .9 0 3.6-2 6-4.5l4.5-4.4v-17.6c0-11-.4-17.5-1-17.5-.5 0-1-.9-1-2s-.4-2-1-2c-.5 0-1-.7-1-1.5 0-2-4.5-6.5-6.5-6.5-.8 0-1.5-.5-1.5-1 0-.6-.7-1-1.6-1-.8 0-3.7-2.3-6.4-5-3.3-3.4-5.7-5-7.4-5-1.4 0-2.6-.5-2.6-1 0-.6-2.2-1-5-1h-5v-4c0-2.2-.4-4-1-4-.5 0-1-.8-1-1.8s-.9-2.4-2-3.2c-1.1-.8-2-2-2-2.8 0-1.7-4.5-6.2-6.2-6.2-.8 0-2-.9-2.8-2-.8-1.1-2.2-2-3.2-2s-1.8-.5-1.8-1c0-.6-.9-1-2-1s-2-.5-2-1c0-.6-.9-1-2-1s-2-.5-2-1c0-.6-1.3-1-3-1-1.6 0-3-.5-3-1 0-.6-1.8-1-4-1s-4-.5-4-1c0-.6-1.8-1-4-1s-4-.5-4-1c0-.6-1.3-1-3-1-1.6 0-3-.5-3-1 0-.6-1.3-1-3-1-1.6 0-3-.5-3-1 0-.6-.9-1-2-1s-2-.5-2-1c0-.6-.7-1-1.6-1-2 0-4.4-2.4-4.4-4.4 0-2-4.6-2.1-6.6-.2-1.9 1.9-2 18.2-.1 18.9.7.2.8.8.3 1.3s-1.1.4-1.3-.4c-.3-.6-1.8-1.2-3.4-1.2-1.6 0-2.9-.5-2.9-1 0-.6-.8-1-1.8-1s-2.4-.9-3.2-2c-.8-1.1-2-2-2.8-2-.7 0-4.4-3.2-8.2-7-6-6.1-7.4-7-10.5-7-2.8 0-3.5.4-3.5 2zm11 14c.8 1.1 2.2 2 3.2 2s1.8.4 1.8 1c0 .5.8 1 1.8 1s2.4.9 3.2 2c.8 1.2 2.6 2 4.2 2 1.5 0 2.8.4 2.8 1 0 .5.9 1 2 1s2 .4 2 1 3 1 7 1 7 .4 7 1 3 1 7 1 7 .4 7 1c0 .5 1.4 1 3 1 1.7 0 3 .4 3 1 0 .5.7 1 1.5 1 2 0 10.5 8.5 10.5 10.5 0 .8.5 1.5 1 1.5.6 0 1 1.3 1 3 0 1.6.5 3 1 3 .6 0 1 2.2 1 5 0 2.7.5 5 1 5 .6 0 1 1.8 1 4s.5 4 1 4c.6 0 1 4 1 10s-.4 10-1 10c-.5 0-1 .7-1 1.5 0 .9-1.6 3.1-3.5 5-2.8 2.9-4.2 3.5-7.6 3.5-3.3 0-4.7-.6-6.9-3-2.3-2.5-3.6-3-7.4-3-2.5 0-4.6-.5-4.6-1 0-.6-1.3-1-3-1-1.6 0-3-.5-3-1 0-.6-.9-1-2-1-1.3 0-2-.7-2-2 0-1.1-.4-2-1-2-.5 0-1-.5-1-1 0-.6.9-1 2-1s2-.5 2-1c0-.6.9-1 2-1s2 .4 2 1c0 .5.9 1 2 1s2 .4 2 1c0 .5 1.4 1 3 1 1.7 0 3 .4 3 1 0 .5.9 1 2 1s2-.3 2-.6c0-1.1-2.9-3.4-4.4-3.4-.9 0-1.6-.5-1.6-1 0-.6-.7-1-1.5-1-2 0-8.5-6.5-8.5-8.5 0-.8-.4-1.5-1-1.5-.5 0-1-.9-1-2s.5-2 1-2c.6 0 1 .4 1 1 0 .5.9 1 2 1s2 .4 2 1c0 .5 1.4 1 3 1 1.7 0 3 .4 3 1 0 .5 1.4 1 3 1 1.7 0 3-.5 3-1 0-.6-.9-1-2-1s-2-.5-2-1c0-.6-.9-1-2-1s-2-.5-2-1c0-.6-.8-1-1.8-1s-2.4-.9-3.2-2c-.8-1.1-2-2-2.8-2-1.8 0-6.2-4.5-6.2-6.4 0-.8-.6-1.6-1.2-1.8-.9-.3-.8-.9.4-2.1C67 99.8 78 99.2 78 101c0 .5.9 1 2 1s2 .4 2 1c0 .5.9 1 2 1s2-.7 2-1.5c0-2.5-4.6-6.5-7.5-6.5-1.4 0-2.5-.5-2.5-1 0-.6-3-1-7-1s-7-.4-7-1-2.2-1-5-1c-2.7 0-5-.5-5-1 0-.6-1.3-1-3-1-1.6 0-3-.5-3-1 0-.6-1.1-1-2.5-1-2.9 0-7.5-4-7.5-6.5 0-.8-.4-1.5-1-1.5-.5 0-1-.9-1-2s-.4-2-1-2c-.5 0-1-2.3-1-5 0-2.8-.4-5-1-5-.5 0-1-.9-1-2 0-1.3.7-2 1.8-2 1 0 2.4.9 3.2 2zm35-1c0 .5 1.4 1 3 1 1.7 0 3 .4 3 1 0 .5 1.4 1 3 1 1.7 0 3 .4 3 1 0 .5 1.8 1 4 1s4 .4 4 1c0 .5 1.8 1 4 1s4 .4 4 1c0 .5 1.4 1 3 1 1.7 0 3 .4 3 1 0 .5 1.4 1 3 1 1.7 0 3 .4 3 1 0 .5 1.4 1 3 1 1.7 0 3 .4 3 1 0 .5.9 1 2 1s2 .4 2 1c0 .5.7 1 1.5 1 2 0 8.5 6.5 8.5 8.5 0 .8.5 1.5 1 1.5.6 0 1 .9 1 2s.5 2 1 2c.6 0 1 1.8 1 4 0 3.7-.2 4-2.6 4-1.5 0-3.5 1-4.7 2.2-1.3 1.6-2.1 1.9-2.4 1-.3-.6-1.3-1.2-2.4-1.2-1 0-1.9-.5-1.9-1 0-.6-1.6-1-3.6-1-3.8 0-6.4-1.8-6.4-4.4 0-.9-.4-1.6-1-1.6-.5 0-1-.9-1-2s-.4-2-1-2c-.5 0-1-.9-1-2s.5-2 1-2c.6 0 1 .4 1 1 0 .5.9 1 2 1 1.3 0 2-.7 2-2s-.7-2-2-2c-1.1 0-2-.5-2-1 0-.6-.9-1-2-1s-2-.5-2-1c0-.6-.9-1-2-1s-2-.5-2-1c0-.6-.9-1-2-1s-2-.5-2-1c0-.6-.9-1-2-1s-2-.5-2-1c0-.6-.9-1-2-1s-2-.5-2-1c0-.6-1.8-1-4-1s-4-.5-4-1c0-.6-1.6-1-3.5-1-3.8 0-8.5-3.6-8.5-6.5 0-.8-.4-1.5-1-1.5-.5 0-1-.5-1-1 0-.6.9-1 2-1s2 .4 2 1zM48 99c0 .5 2.3 1 5 1 4.3 0 5 .3 5 2 0 1.1.5 2 1 2 .6 0 1 .9 1 2s.5 2 1 2c.6 0 1 .4 1 1 0 .5-1.8 1-4 1s-4-.5-4-1c0-.6-.7-1-1.5-1-2 0-6.5-4.5-6.5-6.5 0-.8-.4-1.5-1-1.5-.5 0-1-.5-1-1 0-.6.9-1 2-1s2 .4 2 1zm96 6c0 .5 1.4 1 3 1 1.7 0 3 .4 3 1 0 .5.9 1 2 1 1.3 0 2 .7 2 1.9 0 1.1.6 2.2 1.3 2.5 1 .5 1 .7 0 1.2-2.6 1.2-1.2 2.4 2.7 2.4 2.2 0 4 .4 4 1 0 .5.7 1 1.5 1 2 0 8.5 6.5 8.5 8.5 0 .8.5 1.5 1 1.5.6 0 1 1.8 1 4s-.4 4-1 4c-.5 0-1 .9-1 2 0 1.6-.7 2-3 2-2.7 0-3 .3-3 3s.3 3 3 3c2.3 0 3 .4 3 2 0 1.1.5 2 1 2 .6 0 1 .9 1 2s-.4 2-1 2c-.5 0-1 .7-1 1.5 0 2.9-4.7 6.5-8.5 6.5-4 0-4.4-.9-1.5-3 1.1-.8 2-2.2 2-3.2 0-1.1-.7-1.8-2-1.8-1.7 0-2-.7-2-5 0-2.8-.4-5-1-5-.5 0-1-2.5-1-5.6 0-5.4 1.4-8.4 4-8.4.6 0 1.8-.7 2.6-1.5 1.4-1.3 1.3-1.7-.2-3.2-1.3-1.3-1.9-1.4-2.2-.5-.4 1.4-8.2 1.7-8.2.2 0-.6-.9-1-2-1-1.3 0-2-.7-2-2 0-1.1-.4-2-1-2-.5 0-1-.8-1-1.8s-.9-2.4-2-3.2c-1.1-.8-2-1.8-2-2.2 0-.4.9-.8 2-.8 2.4 0 2.5-.6.6-2.6-1.7-1.6-6.6-1.9-6.6-.4s-2.9 1.2-4.6-.4c-2.1-2.1-1.8-2.6 1.6-2.6 1.7 0 3-.5 3-1 0-.6.9-1 2-1s2 .4 2 1zm-30 2c0 .5.9 1 2 1s2 .4 2 1c0 .5-.4 1-1 1-.5 0-1 .4-1 1s3.3 1 8 1 8 .4 8 1c0 .5 1.1 1 2.5 1 2.9 0 9.5 5.9 9.5 8.5 0 .8.5 1.5 1 1.5 1.5 0 1.2 4.9-.4 6.6-.8.8-2.6 1.4-4 1.4-3 0-3.2.5-1.2 2.6 1.7 1.6 4.6 1.9 4.6.4s4.9-1.2 6.6.4c.8.8 1.4 2.2 1.4 3 0 .9.5 1.6 1 1.6.6 0 1 2.9 1 6.6 0 7.1-1.2 9.4-5 9.4-1.2 0-2.8.7-3.6 1.5-1.4 1.3-1.4 1.7 0 3 .8.8 2.6 1.5 4 1.5 2.9 0 3.5 2.3 1.2 4.6-4.4 4.4-14.6-2-14.6-9.1 0-1.9.5-3.5 1-3.5.6 0 1-.7 1-1.6 0-2.6 2.6-4.4 6.4-4.4 2 0 3.6-.5 3.6-1 0-.6-.4-1-1-1-.5 0-1-.9-1-2 0-1.3-.7-2-2-2-1.1 0-2 .4-2 1 0 .5-.9 1-2 1s-2 .4-2 1c0 .5-.9 1-2 1s-2-.5-2-1c0-.6-.7-1-1.6-1-3 0-4.4-2.7-4.4-8.4 0-5.6 0-5.6 3-5.6 2.7 0 3-.3 3-3 0-2.6-.4-3-2.8-3-1.6 0-3.4.8-4.2 2-1 1.4-2.6 2-5.2 2-2.1 0-3.8-.5-3.8-1 0-.6-.9-1-2-1s-2-.5-2-1c0-.6.5-1 1-1 .6 0 1-1.4 1-3 0-1.7-.4-3-1-3-.5 0-1-1.4-1-3 0-1.7-.4-3-1-3-.5 0-1-1.4-1-3 0-1.7.5-3 1-3 .6 0 1 .4 1 1zm-60 8c0 .5 2.3 1 5 1 4.3 0 5 .3 5 2 0 1.1.5 2 1 2 .6 0 1 .9 1 2s.5 2 1 2c.6 0 1 .4 1 1 0 .5-1.8 1-4 1s-4-.5-4-1c0-.6-.7-1-1.5-1-2 0-6.5-4.5-6.5-6.5 0-.8-.4-1.5-1-1.5-.5 0-1-.5-1-1 0-.6.9-1 2-1s2 .4 2 1zm64 21c0 1.1.5 2 1 2 .6 0 1 2.1 1 4.6 0 3.5-.5 5.1-2.1 6.5-2 1.7-2 1.9-.5 3.5 1.5 1.5 1.9 1.3 4.5-1.5 5-5.4 8.1-3.3 8.1 5.3 0 3.1.5 5.6 1 5.6.6 0 1 .8 1 1.8s.9 2.4 2 3.2c3 2.2 2.4 3-2 3-3.3 0-4-.3-4-2 0-1.1-.4-2-1-2-.5 0-1-2.3-1-5 0-4.9-.1-5-3-5-1.6 0-3 .4-3 1 0 .5-2.5 1-5.6 1-9.3 0-11.1-4.5-4.4-11 2.2-2.1 4-4.6 4-5.4 0-.9.5-1.6 1-1.6.6 0 1-1.4 1-3 0-1.7.5-3 1-3 .6 0 1 .9 1 2zm-36 11c0 .5 1.4 1 3 1 2.7 0 3 .3 3 3 0 1.6-.4 3-1 3-.5 0-1 .9-1 2s-.4 2-1 2c-.5 0-1 .9-1 2s.5 2 1 2c.6 0 1 .7 1 1.5 0 2 8.5 10.5 10.5 10.5 2.1 0 1.9-1.3-.5-3-1.1-.8-2-2.2-2-3.2s-.4-1.8-1-1.8c-.5 0-1-.9-1-2s-.4-2-1-2c-1.8 0-1-3.1 1.5-5.5 2.7-2.8 7.5-3.4 7.5-1 0 2 4.5 6.5 6.5 6.5.8 0 1.5.4 1.5 1 0 .5 1.8 1 4 1s4 .4 4 1c0 .5.9 1 2 1 1.3 0 2 .7 2 2 0 1.7-.7 2-4 2-2.2 0-4-.5-4-1 0-.6-1.3-1-3-1-1.6 0-3-.5-3-1 0-.6-.8-1-1.8-1s-2.4-.9-3.2-2c-1.5-2.1-5-2.8-5-1 0 .5.5 1 1 1 .6 0 1 .7 1 1.6 0 1.8 2.3 4.4 4 4.4 1.1 0 6 4.4 6 5.5 0 .3-3.6.5-8 .5-4.7 0-8-.4-8-1s-.7-1-1.5-1c-2 0-8.5-6.5-8.5-8.5 0-.8-.4-1.5-1-1.5-.5 0-1-.9-1-2s.5-2 1-2c.6 0 1-.9 1-2 0-1.5-.7-2-2.6-2-3.3 0-5.4-2.1-5.4-5.4 0-2.2.4-2.6 3-2.6 1.7 0 3-.5 3-1 0-.6.5-1 1-1 .6 0 1 .4 1 1z"/><path d="M156 119c0 .5.5 1 1 1 .6 0 1-.5 1-1 0-.6-.4-1-1-1-.5 0-1 .4-1 1zM138 125c0 .5.5 1 1 1 .6 0 1-.5 1-1 0-.6-.4-1-1-1-.5 0-1 .4-1 1zM90 197c0 .6-2.7 1-6 1s-6 .4-6 1c0 .5-1.8 1-4 1s-4 .4-4 1c0 .5-.7 1-1.5 1-1.8 0-6.5 4.4-6.5 6 0 1.7 2.6 4 4.4 4 .9 0 1.6.4 1.6 1 0 .5 1.4 1 3 1 1.7 0 3 .4 3 1s2.7 1 6 1 6 .4 6 1 9 1 25 1 25-.4 25-1 2.7-1 6-1 6-.4 6-1 1.4-1 3-1c1.7 0 3-.5 3-1 0-.6.7-1 1.6-1 1.8 0 4.4-2.3 4.4-4 0-1.6-4.7-6-6.5-6-.8 0-1.5-.5-1.5-1 0-.6-1.8-1-4-1s-4-.5-4-1c0-.6-2.7-1-6-1s-6-.4-6-1-7.7-1-21-1-21 .4-21 1z"/></svg>